<svg xmlns="http://www.w3.org/2000/svg" width="1024" height="1024" viewBox="0 0 1024 1024" role="img" aria-labelledby="title desc">
  <title id="title">Tierlog A3 v2 app icon</title>
  <desc id="desc">A dark rounded square app icon with large stacked trading cards, a crown, and battle log lines.</desc>
  <defs>
    <linearGradient id="tierlog-icon-a3-v2-bg" x1="116" y1="72" x2="900" y2="948" gradientUnits="userSpaceOnUse">
      <stop offset="0" stop-color="#102958"/>
      <stop offset="0.52" stop-color="#071735"/>
      <stop offset="1" stop-color="#030817"/>
    </linearGradient>
    <linearGradient id="tierlog-icon-a3-v2-glow" x1="96" y1="214" x2="918" y2="812" gradientUnits="userSpaceOnUse">
      <stop offset="0" stop-color="#3fe6d2" stop-opacity="0.32"/>
      <stop offset="0.46" stop-color="#2563eb" stop-opacity="0.2"/>
      <stop offset="1" stop-color="#7a6cff" stop-opacity="0.22"/>
    </linearGradient>
    <linearGradient id="tierlog-icon-a3-v2-teal" x1="76" y1="126" x2="252" y2="372" gradientUnits="userSpaceOnUse">
      <stop offset="0" stop-color="#3fe6d2"/>
      <stop offset="1" stop-color="#0c7fa5"/>
    </linearGradient>
    <linearGradient id="tierlog-icon-a3-v2-blue" x1="126" y1="98" x2="300" y2="354" gradientUnits="userSpaceOnUse">
      <stop offset="0" stop-color="#2f7cff"/>
      <stop offset="1" stop-color="#143aa3"/>
    </linearGradient>
    <linearGradient id="tierlog-icon-a3-v2-violet" x1="228" y1="112" x2="382" y2="360" gradientUnits="userSpaceOnUse">
      <stop offset="0" stop-color="#7a6cff"/>
      <stop offset="1" stop-color="#3a2a90"/>
    </linearGradient>
    <linearGradient id="tierlog-icon-a3-v2-front" x1="180" y1="86" x2="350" y2="364" gradientUnits="userSpaceOnUse">
      <stop offset="0" stop-color="#102958"/>
      <stop offset="0.56" stop-color="#0b1b40"/>
      <stop offset="1" stop-color="#06112d"/>
    </linearGradient>
    <linearGradient id="tierlog-icon-a3-v2-lines" x1="214" y1="268" x2="308" y2="330" gradientUnits="userSpaceOnUse">
      <stop offset="0" stop-color="#3fe6d2"/>
      <stop offset="0.5" stop-color="#38bdf8"/>
      <stop offset="1" stop-color="#6d5dfc"/>
    </linearGradient>
    <filter id="tierlog-icon-a3-v2-card-shadow" x="-22%" y="-22%" width="144%" height="155%" color-interpolation-filters="sRGB">
      <feDropShadow dx="0" dy="18" stdDeviation="16" flood-color="#020617" flood-opacity="0.36"/>
    </filter>
  </defs>
  <rect width="1024" height="1024" rx="220" fill="url(#tierlog-icon-a3-v2-bg)"/>
  <path fill="url(#tierlog-icon-a3-v2-glow)" d="M118 696c154-396 432-548 790-420v566C682 934 354 882 118 696z"/>
  <rect x="40" y="40" width="944" height="944" rx="188" fill="none" stroke="#ffffff" stroke-opacity="0.065" stroke-width="28"/>
  <rect x="86" y="86" width="852" height="852" rx="152" fill="none" stroke="#ffffff" stroke-opacity="0.045" stroke-width="8"/>
  <g transform="translate(22 52) scale(2.1)" filter="url(#tierlog-icon-a3-v2-card-shadow)">
    <rect x="90" y="139" width="156" height="238" rx="25" fill="url(#tierlog-icon-a3-v2-teal)" stroke="#fbfdff" stroke-width="9" transform="rotate(-15 168 258)"/>
    <rect x="135" y="112" width="158" height="247" rx="25" fill="url(#tierlog-icon-a3-v2-blue)" stroke="#fbfdff" stroke-width="9" transform="rotate(-7 214 236)"/>
    <rect x="223" y="122" width="158" height="247" rx="25" fill="url(#tierlog-icon-a3-v2-violet)" stroke="#fbfdff" stroke-width="9" transform="rotate(9 302 246)"/>
    <g transform="rotate(4 262 228)">
      <rect x="171" y="88" width="184" height="274" rx="27" fill="url(#tierlog-icon-a3-v2-front)" stroke="#fbfdff" stroke-width="9"/>
      <path fill="#ffffff" d="M214 187l25 23 23-51 24 51 26-23-11 71h-76l-11-71z"/>
      <rect x="228" y="269" width="70" height="10" rx="5" fill="#f8fbff" opacity="0.96"/>
      <rect x="215" y="299" width="96" height="11" rx="5.5" fill="url(#tierlog-icon-a3-v2-lines)"/>
      <rect x="224" y="329" width="78" height="11" rx="5.5" fill="url(#tierlog-icon-a3-v2-lines)" opacity="0.9"/>
      <rect x="236" y="359" width="55" height="11" rx="5.5" fill="url(#tierlog-icon-a3-v2-lines)" opacity="0.78"/>
      <path fill="#ffffff" opacity="0.06" d="M180 99h166v58L180 251V99z"/>
    </g>
  </g>
</svg>
