<svg xmlns="http://www.w3.org/2000/svg" width="1024" height="1024" viewBox="0 0 1024 1024" role="img" aria-labelledby="title desc">
  <title id="title">Tierlog mark</title>
  <desc id="desc">Three stacked card layers representing tiers, battle logs, and meta analysis.</desc>
  <g stroke="#ffffff" stroke-width="44" stroke-linejoin="round">
    <path fill="#6366f1" d="M536 532 L806 667 Q834 680 806 693 L536 828 Q512 840 488 828 L218 693 Q190 680 218 667 L488 532 Q512 520 536 532 Z"/>
    <path fill="#0f172a" d="M536 352 L806 487 Q834 500 806 513 L536 648 Q512 660 488 648 L218 513 Q190 500 218 487 L488 352 Q512 340 536 352 Z"/>
    <path fill="#6366f1" d="M536 172 L806 307 Q834 320 806 333 L536 468 Q512 480 488 468 L218 333 Q190 320 218 307 L488 172 Q512 160 536 172 Z"/>
  </g>
</svg>
